<?xml version="1.0" encoding="utf-8"?>
<!-- Generator: Adobe Illustrator 15.0.2, SVG Export Plug-In  -->
<!DOCTYPE svg PUBLIC "-//W3C//DTD SVG 1.1//EN" "http://www.w3.org/Graphics/SVG/1.1/DTD/svg11.dtd" [
	<!ENTITY ns_flows "http://ns.adobe.com/Flows/1.0/">
]>
<svg version="1.1"
	 xmlns="http://www.w3.org/2000/svg" xmlns:xlink="http://www.w3.org/1999/xlink" xmlns:a="http://ns.adobe.com/AdobeSVGViewerExtensions/3.0/"
	 x="0px" y="0px" width="56px" height="1712px" viewBox="0 0 56 1712" overflow="visible" enable-background="new 0 0 56 1712"
	 xml:space="preserve">
<defs>
</defs>
<path fill="#FFFFFF" d="M14.092,45.816c3.68,2.7,7.8,4.5,13.5,4.438c11.08-0.069,18.404-7.302,21.224-15.281
	c1.772-5,1.545-10.801-0.116-15.276C45.706,11.5,38.099,4.601,27.299,4.649C22,4.658,17.281,6.743,13.775,9.45
	C7.167,14.5,2,24.4,6.299,35.562c1.676,4.4,4.4,7.7,7.8,10.2 M1.622,17.901c2.431-6.5,6.883-11.4,12.783-14.65
	c2.594-1.44,6.27-2.767,10.61-3.152c4.435-0.388,8.5,0.4,11.799,1.6c9.354,3.5,16.9,11.3,18,23.2
	c0.377,4.141-0.27,8.505-1.521,11.896c-3.457,9.399-11.489,16.799-23.188,17.999C17.08,56.101,7.799,48.601,3.399,40.701
	C0.187,34.968-1.41,26.11,1.603,17.91"/>
<path fill="#FFFFFF" d="M27.46,27.565l6.866-2.346l2.305-3.639v-0.737l-1.521-5.427c0-0.99-0.717-1.817-1.649-2.003l-5.592-0.768
	c-0.125-0.024-0.287-0.04-0.417-0.042c-0.129-0.001-0.285,0.018-0.41,0.042l-5.594,0.768c-0.937,0.186-1.644,1.013-1.644,2
	l-1.524,5.427v0.745l2.3,3.631L27.46,27.565z M28.343,16.728c0-0.181,0.146-0.326,0.324-0.326h5.205c0.18,0,0.3,0.1,0.3,0.3v1.65
	c0,0.181-0.146,0.326-0.321,0.326h-5.205c-0.181,0-0.327-0.146-0.327-0.326v-1.65h0.024V16.728z M28.391,24.201
	c0.335,0,0.6,0.3,0.6,0.607c0,0.337-0.271,0.61-0.604,0.61c-0.332,0-0.607-0.273-0.607-0.61c0.006-0.364,0.33-0.564,0.625-0.564
	 M27.145,24.768c0,0.337-0.271,0.61-0.606,0.61c-0.336,0-0.61-0.273-0.61-0.61c0-0.335,0.274-0.607,0.61-0.607
	c0.334,0,0.6,0.2,0.6,0.6 M20.71,16.728c0-0.181,0.145-0.326,0.324-0.326h5.203c0.181,0,0.3,0.1,0.3,0.326v1.65
	c0,0.181-0.146,0.326-0.326,0.326h-5.203c-0.18,0-0.324-0.146-0.324-0.326v-1.65H20.71z"/>
<path fill="#FFFFFF" d="M35.562,42.711c0.42-0.154,0.836-0.315,1.233-0.499l-4.178-4.707l3.256-4.566
	c0.455-0.262,0.756-0.758,0.756-1.32V23.3l-1.858,2.936l-7.196,2.461l-0.292-0.021l-7.145-2.442l-1.854-2.929l-0.005,8.3
	c0,0.6,0.3,1.1,0.8,1.32l3.194,4.479l-4.123,4.646c0.304,0.1,0.6,0.3,0.9,0.429c1.285,0.8,4.6,2.5,8.8,2.5
	c2.365,0,5.054-0.58,7.753-2.28 M32.9,29.792c0.476,0,0.899,0.4,0.899,0.869c0,0.479-0.396,0.868-0.862,0.9
	c-0.479,0-0.867-0.389-0.867-0.868s0.354-0.892,0.839-0.892 M30.144,37.528l1.062,1.198c-3.053,1.428-5.92,0.656-7.566-0.078
	l0.994-1.12H30.144z M21.142,30.664c0-0.479,0.393-0.869,0.867-0.869c0.483,0,0.9,0.4,0.9,0.9c0,0.479-0.385,0.868-0.868,0.9
	c-0.507-0.059-0.936-0.459-0.936-0.859 M21.062,41.559l1.343-1.555c1.17,0.6,3.1,1.3,5.3,1.281c1.479,0,3.102-0.321,4.744-1.191
	l1.35,1.521c-5.275,2.89-10.294,1.188-12.694-0.01"/>
<path fill="#FFFFFF" d="M14.12,1426.866c3.688,2.699,7.8,4.5,13.6,4.438c11.1-0.061,18.438-7.311,21.264-15.311
	c1.773-5.008,1.545-10.816-0.119-15.303c-3.029-8.209-10.623-15.104-21.5-15.076c-5.31,0.008-10.037,2.096-13.552,4.8
	c-6.593,5.069-11.768,15.024-7.477,26.17c1.659,4.4,4.4,7.8,7.8,10.3 M1.625,1398.901c2.436-6.576,6.921-11.439,12.849-14.73
	c2.598-1.438,6.279-2.77,10.63-3.15c4.443-0.395,8.5,0.4,11.8,1.602c9.369,3.5,16.9,11.4,18,23.2
	c0.379,4.145-0.271,8.52-1.521,11.924c-3.441,9.34-11.492,16.83-23.25,18c-13.049,1.291-22.35-6.199-26.753-14.131
	c-3.188-5.679-4.788-14.562-1.773-22.763"/>
<path fill="#FFFFFF" d="M29.683,1409.28c0.771-0.082,1.4,0,1.7,0.561c0.271,0.541-0.021,1.146-0.553,1.668L29.683,1409.28z
	 M25.966,1406.792c-0.35-0.684-0.082-1.303,0.41-1.807l1.151,2.271c-0.757,0.039-1.324,0.039-1.524-0.461 M31.7,1413.3l0.608,1.2
	l-0.897,0.451l-0.586-1.154l-0.207,0.119c-1.451,0.736-2.172,0.922-3.615,1.346l-0.688-1.977c1.108-0.078,2.291-0.361,3.339-0.896
	c0.119-0.059,0.229-0.113,0.343-0.217l-1.381-2.729c-1.981,0.354-4.362,0.902-5.397-1.121c-1.016-2.004,0.332-3.807,2.281-5.031
	l-0.547-1.084l0.896-0.451l0.533,1.061c1.132-0.572,2.218-0.98,3.308-1.223l0.598,1.8c-0.979,0.146-1.99,0.466-2.924,0.9l-0.151,0.1
	l1.362,2.699c1.943-0.344,4.432-0.938,5.5,1.2c0.967,1.867-0.27,3.668-2.365,5 M42.675,1407.752l-4.963-9.939
	c-0.662-1.312-2.27-1.846-3.604-1.188l-18.105,9c-1.326,0.66-1.873,2.268-1.215,3.586l4.965,9.939c0.664,1.3,2.3,1.899,3.6,1.199
	l18.103-9.037c1.332-0.602,1.848-2.2,1.246-3.502"/>
<path fill="#FFFFFF" d="M23.272,1131.868c-1.483,0-2.687,1.266-2.687,2.83c0,1.6,1.2,2.8,2.7,2.8s2.688-1.271,2.688-2.828
	c-0.013-1.598-1.17-2.793-2.67-2.793"/>
<path fill="#FFFFFF" d="M35.833,1131.868c-1.481,0-2.688,1.266-2.688,2.83c0,1.6,1.201,2.8,2.701,2.8
	c1.479,0,2.688-1.271,2.688-2.828c-0.016-1.563-1.229-2.764-2.729-2.764"/>
<path fill="#FFFFFF" d="M14.067,1144.682c3.674,2.7,7.8,4.5,13.5,4.438c11.057-0.07,18.372-7.287,21.186-15.256
	c1.771-4.994,1.541-10.781-0.117-15.254c-3.021-8.18-10.586-15.037-21.419-15.021c-5.293,0.006-10.003,2.084-13.503,4.8
	c-6.571,5.051-11.728,14.977-7.452,26.078c1.704,4.3,4.4,7.7,7.8,10.2 M1.617,1116.901c2.428-6.562,6.898-11.396,12.804-14.684
	c2.589-1.436,6.259-2.758,10.593-3.145c4.427-0.393,8.5,0.399,11.8,1.6c9.334,3.5,16.799,11.3,17.899,23.2
	c0.377,4.137-0.266,8.492-1.521,11.877c-3.438,9.312-11.452,16.774-23.166,17.899c-13.003,1.28-22.271-6.188-26.658-14.086
	c-3.18-5.696-4.774-14.537-1.765-22.636"/>
<path fill="#FFFFFF" d="M21.856,1131.114h13.595c0.562,0,1.021-0.482,1.021-1.084s-0.459-1.076-1.021-1.076h-12.94l-3.713-8.525
	c-0.166-0.387-0.525-0.631-0.928-0.631H13.6c-0.571,0-1.023,0.48-1.023,1.078c0,0.6,0.5,1.1,1,1.076h3.619l3.713,8.5
	c0.187,0.5,0.6,0.6,1,0.6"/>
<path fill="#FFFFFF" d="M36.361,1126.122c-0.106,0.369-0.215,0.619-0.592,0.619h-2.006l0.021-0.104v-3.426h3.432L36.361,1126.122z
	 M24.073,1126.204l-1.183-2.982h3.476v3.432l0.015,0.098h-1.72c-0.348-0.043-0.457-0.242-0.557-0.543 M21.338,1118.5
	c0.163-0.236,0.423-0.367,0.705-0.367h4.345l-0.022,0.123v3.498h-3.728c-0.109,0-0.215,0.004-0.314,0.021l-0.987-2.482
	c-0.109-0.291-0.134-0.592-0.034-0.791 M27.896,1121.75v-3.498l-0.027-0.121h4.407l-0.021,0.121v3.498H27.896z M27.896,1123.201
	h4.359v3.426l0.014,0.1h-4.396l0.023-0.1v-3.409l0,0V1123.201z M38.394,1118.502c0.162,0.2,0.101,0.496-0.006,0.8l-0.434,1.461
	l-0.314,1.101c-0.094-0.012-0.189-0.016-0.303-0.016h-3.553v-3.498l-0.021-0.121h3.951c0.268-0.066,0.5,0,0.7,0.301 M39.896,1117.5
	c-0.188-0.271-0.492-0.543-0.821-0.543H20.428c-0.345,0-0.654,0.287-0.847,0.58c-0.187,0.297-0.228,0.683-0.108,1.011l3.312,8.8
	c0.157,0.4,0.5,0.7,1,0.688h12.889c0.453,0,0.854-0.322,0.984-0.781l1.924-6.92l0.518-1.863c0.049-0.321,0.004-0.723-0.195-0.922"/>
<path fill="#FFFFFF" d="M14.199,869.28c3.68,2.699,7.8,4.5,13.5,4.438c11.076-0.062,18.402-7.301,21.219-15.271
	c1.775-5.012,1.545-10.805-0.117-15.277c-3.025-8.188-10.602-15.068-21.454-15.045c-5.302,0.01-10.02,2.092-13.525,4.8
	c-6.581,5.062-11.745,14.996-7.463,26.125c1.727,4.4,4.4,7.8,7.8,10.3 M1.729,841.401c2.431-6.563,6.909-11.416,12.824-14.694
	c2.593-1.438,6.269-2.771,10.61-3.152c4.435-0.391,8.5,0.4,11.8,1.602c9.352,3.5,16.9,11.3,18,23.2
	c0.379,4.144-0.268,8.507-1.521,11.894c-3.438,9.322-11.479,16.799-23.202,18c-13.025,1.285-22.31-6.19-26.701-14.104
	c-3.241-5.729-4.837-14.55-1.832-22.746"/>
<polygon fill="#FFFFFF" points="32.599,854.1 30.7,850.8 28.599,850.8 30.5,854.1 28.799,854.1 26.899,850.8 24.799,850.8 
	26.7,854.1 24.399,854.1 22.5,850.8 20.399,850.8 22.299,854.1 17.899,854.1 17.899,855.701 37.099,855.701 37.099,854.1 "/>
<path fill="#FFFFFF" d="M33.564,842.841l-10.25-5.854c-0.49-0.254-0.979,0.356-0.518,0.883l4.926,5.543l-6.492,0.635l-5.364-2.92
	c-0.338-0.174-0.885,0.299-0.538,1.012l1.576,3.023c-0.05,0.111-0.083,0.219-0.083,0.334c0,0.7,1.1,1.3,2.4,1.256l19.083-0.062
	c1.313,0,2.396-0.578,2.389-1.271c0-0.645-0.926-1.172-2.104-1.248l0.021-0.164c0-0.785-0.896-1.42-1.987-1.418h-0.509
	L33.564,842.841z"/>
<path fill="#FFFFFF" d="M24.297,864.612c3.359,1.699,6.8,1.199,10.382-0.016c1.178-0.67,2.248-1.5,3.193-2.457
	c-4.672,2.02-9.213,3.482-13.576,1.271c-1.008-1.307-4.254-1.742-7.692-1.623c0.385,0.4,0.8,0.8,1.2,1.2c2.985,0,5.6,0.5,6.5,1.6"/>
<path fill="#FFFFFF" d="M13.482,856.782c0.213,0.6,0.5,1.1,0.7,1.633c2.472,0.9,9.3,2.5,10.1,3.6
	c4.604,2.301,9.4,0.601,14.377-1.604v0.016l0.006-0.016l0.018-0.012v-0.018l2.939-3.586L13.482,856.782z"/>
<path fill="#FFFFFF" d="M14.265,595.423c3.674,2.7,7.8,4.5,13.5,4.427c11.059-0.062,18.374-7.287,21.186-15.252
	c1.771-4.992,1.541-10.783-0.119-15.252c-3.02-8.176-10.584-15.044-21.419-15.021c-5.292,0.009-10.002,2.09-13.503,4.8
	c-6.571,5.049-11.728,14.972-7.45,26.081c1.703,4.399,4.4,7.7,7.8,10.2 M1.814,567.6c2.427-6.554,6.897-11.396,12.804-14.672
	c2.588-1.438,6.258-2.762,10.592-3.146c4.426-0.392,8.5,0.399,11.801,1.6c9.334,3.5,16.799,11.3,17.899,23.2
	c0.379,4.134-0.265,8.49-1.519,11.878c-3.438,9.312-11.453,16.775-23.166,17.9c-13.015,1.373-22.325-6.127-26.625-14.027
	c-3.219-5.718-4.813-14.6-1.8-22.7"/>
<path fill="#FFFFFF" d="M36.25,581.022c-1.391,0-2.527-1.024-2.527-2.281c0-1.265,1.137-2.289,2.527-2.289c1.396,0,2.5,1,2.5,2.3
	c0.027,1.262-1.146,2.262-2.547,2.3 M27.536,579.838c-2.773,0-5.026-0.665-5.026-1.471c0-0.815,2.252-1.468,5.026-1.468
	c2.774,0,5,0.699,5,1.468c0.022,0.834-2.229,1.434-5.031,1.399 M18.825,581.001c-1.396,0-2.527-1.026-2.527-2.283
	c0-1.262,1.131-2.289,2.527-2.289c1.394,0,2.5,1,2.5,2.3c0.025,1.272-1.121,2.272-2.521,2.301 M19.996,569.1
	c0.004-1.405,1.274-2.633,2.906-2.633h9.548c1.641,0,2.899,1.2,2.899,2.633v3.201c0,0.175-0.021,0.344-0.062,0.514h-0.009H20.061
	l-0.01-0.027c-0.033-0.166-0.056-0.335-0.056-0.51l0.001-3.156l0,0V569.1z M37.532,572.901c0.016-0.131,0.021-0.264,0.021-0.396
	v-3.7c-0.004-2.446-2.062-4.399-4.563-4.407H22.376c-2.502,0.008-4.57,1.961-4.573,4.407v3.7c0,0.1,0,0.2,0,0.37h-0.02
	c-1.469,0-2.668,1.146-2.668,2.555v5.908c0,1.101,0.8,2.101,1.9,2.439v4.015c0,0.8,0.7,1.5,1.6,1.521h0.466
	c0.873,0,1.591-0.688,1.591-1.521v-3.896h13.781v3.896c0,0.8,0.7,1.5,1.601,1.521h0.471c0.873,0,1.594-0.688,1.594-1.521v-4.015
	c1.088-0.327,1.883-1.295,1.883-2.439v-5.908c-0.041-1.312-1.096-2.411-2.494-2.511"/>
<path fill="#FFFFFF" d="M20.444,297.391c0.506,0.3,0.9,1,0.9,1.615c0.166,2.892-4.107,2.896-4.15,0.2
	c-0.013-1.402,1.609-2.802,3.209-1.802"/>
<path fill="#FFFFFF" d="M14.067,319.908c3.674,2.7,7.8,4.5,13.5,4.432c11.059-0.069,18.372-7.29,21.186-15.257
	c1.771-4.991,1.541-10.781-0.117-15.249c-3.021-8.176-10.584-15.044-21.419-15.022c-5.292,0.008-10.002,2.089-13.503,4.8
	c-6.57,5.049-11.727,14.971-7.451,26.081c1.702,4.4,4.4,7.7,7.8,10.2 M1.617,292.101c2.428-6.555,6.897-11.396,12.805-14.672
	c2.588-1.438,6.258-2.762,10.591-3.146c4.426-0.389,8.5,0.4,11.799,1.6c9.334,3.5,16.801,11.3,17.9,23.2
	c0.377,4.134-0.268,8.49-1.521,11.878c-3.432,9.312-11.453,16.772-23.164,17.9c-13,1.284-22.271-6.182-26.654-14.086
	c-3.183-5.707-4.777-14.574-1.773-22.674"/>
<path fill="#FFFFFF" d="M42.191,298.297c-0.062,3.4,0.1,7.086-0.096,10.317h-1.421c-0.229-0.843-0.043-2.119-0.102-3.13
	c-8.431-0.245-17.298-0.037-25.896-0.101c-0.299,0.9,0.1,2.381-0.205,3.231H13.06c-0.237-4.82-0.035-10.077-0.1-15.075
	c0.404-0.148,1.205-0.148,1.6,0v8.499c8.431,0.2,17.299,0,25.9,0.11c0.229-0.99,0.039-2.396,0.104-3.548
	c0.021-0.599,1.144-0.199,1.644-0.299"/>
<path fill="#FFFFFF" d="M38.751,297.895c0.166,0.8,0.2,2.2,0,2.94c-5.488-0.07-11.262,0.133-16.594-0.107
	c-0.762-3.297,2.035-2.833,5.062-2.833H38.751L38.751,297.895z"/>
<path fill="#FFFFFF" d="M54.956,1681.958c-1.101-11.9-8.647-19.7-18-23.2c-3.3-1.2-7.366-1.994-11.8-1.6
	c-4.341,0.38-8.017,1.708-10.611,3.146C8.63,1663.586,4.151,1668.44,1.721,1675H1.7c-3.008,8.2-1.411,17.018,1.831,22.746
	c4.391,7.918,13.676,15.391,26.703,14.106c11.729-1.196,19.763-8.679,23.201-18C54.687,1690.463,55.333,1686.099,54.956,1681.958z
	 M48.914,1692.034c-2.818,7.973-10.143,15.211-21.221,15.277c-5.7,0.062-9.82-1.737-13.5-4.438l0.007,0.027
	c-3.4-2.5-6.119-5.9-7.848-10.267c-4.284-11.129,0.88-21.066,7.463-26.125c3.505-2.708,8.224-4.792,13.525-4.8
	c10.855-0.018,18.432,6.859,21.457,15.047C50.458,1681.23,50.685,1687.034,48.914,1692.034z"/>
<path fill="#FFFFFF" d="M38.318,1674.222c0.011-0.008-2.822,0.001-6.465,0.012v-3.26c0.002-0.128,0.019-3.15-1.688-4.878
	c-0.752-0.762-1.701-1.16-2.821-1.187l-0.116-0.001v0.001c-1.118,0.026-2.066,0.424-2.818,1.185
	c-1.707,1.728-1.691,4.751-1.69,4.867v3.296c-3.374,0.007-6.078,0.005-6.52-0.014h-0.009v0.001c-0.43-0.006-0.621,0.15-0.66,0.6
	c0.56,5.801,2.6,16,3,19.221c0.095,0.601,0.4,0.9,1.3,0.93c1.938,0,8,0,8.3,0.025l-0.322-10.955
	c-0.014-0.463,0.242-0.895,0.66-1.102c0.168-0.09,0.352-0.127,0.533-0.127c0.267,0,0.5,0.1,0.7,0.26l7.215,5.601
	c-0.025-0.021,1.5-8.625,2.061-13.896C38.951,1674.367,38.75,1674.216,38.318,1674.222z M24.721,1674.253v-3.304
	c0-0.022,0.004-2.328,1.112-3.449c0.381-0.386,0.857-0.579,1.454-0.591c0.596,0.012,1.071,0.204,1.452,0.588
	c0.929,0.936,1.119,2.811,1.114,3.464v3.278C28.171,1674.245,26.406,1674.25,24.721,1674.253z"/>
<path fill="#FFFFFF" d="M36.702,1702.249c-0.185,0-0.361-0.096-0.461-0.266l-2.955-5.062l-2.812,1.9
	c-0.094,0.061-0.195,0.094-0.307,0.094c-0.082,0-0.162-0.018-0.236-0.057c-0.176-0.092-0.285-0.271-0.291-0.459l-0.383-12.896
	c-0.006-0.207,0.107-0.396,0.293-0.488c0.076-0.035,0.156-0.059,0.238-0.059c0.117,0,0.2,0,0.3,0.115l9.854,7.8
	c0.146,0.1,0.201,0.3,0.201,0.5c-0.031,0.188-0.162,0.35-0.343,0.414l-3.219,1.182l2.791,5.2c0.063,0.1,0.101,0.3,0,0.4
	c-0.043,0.133-0.136,0.248-0.261,0.312l-2.235,1.2c-0.007,0.113-0.079,0.113-0.179,0.161h0.003V1702.249z"/>
</svg>
